<svg id="图层_1" data-name="图层 1" xmlns="http://www.w3.org/2000/svg" viewBox="0 0 177.72 244.9"><defs><style>.cls-1{fill:#d63030;}.cls-2{fill:#fff;}.cls-3{fill:red;}.cls-4{fill:#e0ac5a;}.cls-5{fill:#ce9155;}.cls-6{fill:#c17e1b;}.cls-7,.cls-8{fill:none;stroke-miterlimit:10;}.cls-7{stroke:red;stroke-width:4px;}.cls-8{stroke:#000;}.cls-9{fill:#108e16;}</style></defs><title>cuprum</title><path class="cls-1" d="M34.56 41.12V1.23h105.92v39.89z"/><path class="cls-2" d="M37.48 27.33v-13.5h101.25v13.5z"/><path class="cls-3" d="M107.79 128.24H61.73L0 21.32l11.43-6.6 11.69-6.75 11.43-6.59.01.02 7.18 12.43 7.79 13.5 7.96 13.78 28.36 49.12 9.47 16.41 8.97 15.54 3.5 6.06z"/><path class="cls-2" d="M92.56 128.24H76.97l-6.53-11.32-59.01-102.2 11.69-6.75 11.44 19.81 7.69 13.33 35.98 62.31 9.47 16.41 4.86 8.41z"/><path class="cls-3" d="M177.72 22.97l-60.77 105.27H63.91l6.53-11.32 7.79-13.5 7.62-13.19 28.36-49.12 7.95-13.78 7.8-13.5 7.28-12.61.7-1.22 2.11 1.22.43.25 11.67 6.73 13.46 7.78 12.11 6.99z"/><path class="cls-2" d="M165.78 15.68l-.17.3-61.32 106.2-3.49 6.06H82.85l4.85-8.41 7.62-13.19 37.83-65.53 7.33-12.7L152.15 8.2l.17-.3 13.46 7.78z"/><path class="cls-4" d="M155.37 178.74a65.5 65.5 0 0 1-10.37 35.5 65.88 65.88 0 0 1-79.95 25.65h-.1c-.82-.33-1.63-.67-2.43-1a65.85 65.85 0 1 1 85.3-90.69l.19.36v.1a65.55 65.55 0 0 1 7.36 30.08z"/><path class="cls-5" d="M147.1 148.24l-83 91.3H64c-.82-.33-1.63-.67-2.43-1A66.1 66.1 0 0 1 32 212.08l84.7-93.18a66.11 66.11 0 0 1 30.19 28.92z"/><path class="cls-6" d="M147.47 147.34l-.12.13-83.79 92.09c.81.35 1.62.67 2.45 1a4 4 0 0 0-.35.55l.45-.51a65.9 65.9 0 0 0 79.52-27 65.91 65.91 0 0 0 2-65.68s-.04-.47-.16-.58z"/><circle class="cls-7" cx="89.46" cy="179.26" r="61.96"/><path class="cls-8" d="M89.54 229.24c-39.76-2.39-48.81-48.33-48.81-48.33M87.09 229.24c39.76-2.39 48.81-48.33 48.81-48.33"/><path class="cls-9" d="M42.34 193.39c2.27 1 3.55 2.74 2.86 3.84s-3.09 1.16-5.35.14-3.55-2.74-2.86-3.84 3.08-1.16 5.35-.14z"/><path class="cls-9" d="M45.62 191.95c-.93 2.42-.69 4.59.53 4.85s3-1.49 3.89-3.91.69-4.59-.53-4.85-2.96 1.49-3.89 3.91zM47.05 202.31c2.32.82 3.69 2.35 3.07 3.43s-3 1.28-5.33.46-3.69-2.35-3.07-3.43 3.01-1.28 5.33-.46z"/><path class="cls-9" d="M50.24 200.75c-.78 2.33-.42 4.36.81 4.53s2.86-1.58 3.64-3.91.42-4.36-.81-4.53-2.88 1.58-3.64 3.91zM54 212.61c2.12.66 3.44 2.1 2.95 3.21s-2.61 1.48-4.73.82-3.44-2.1-2.95-3.21 2.59-1.48 4.73-.82z"/><path class="cls-9" d="M56.74 210.85c-.56 2.38-.11 4.37 1 4.46s2.46-1.77 3-4.15.11-4.37-1-4.46-2.45 1.77-3 4.15zM71.6 226.18c2.33-.78 4.36-.42 4.53.81s-1.58 2.86-3.91 3.65-4.36.42-4.53-.81 1.58-2.87 3.91-3.65z"/><path class="cls-9" d="M73.15 222.99c.82 2.32 2.36 3.69 3.43 3.07s1.28-3 .46-5.33-2.36-3.69-3.43-3.07-1.28 3.01-.46 5.33zM62.91 219.95c2.46 0 4.28.93 4.06 2.16s-2.38 2.24-4.84 2.27-4.28-.93-4.06-2.16 2.38-2.24 4.84-2.27z"/><path class="cls-9" d="M65.37 217.39c.07 2.46 1.11 4.23 2.32 4s2.14-2.47 2.07-4.93-1.11-4.23-2.32-4-2.15 2.47-2.07 4.93zM39.37 185.02c2.27 1 3.55 2.74 2.86 3.84s-3.09 1.16-5.35.14-3.56-2.76-2.88-3.84 3.1-1.16 5.37-.14z"/><path class="cls-9" d="M42.65 183.58c-.93 2.42-.69 4.59.53 4.85s3-1.49 3.89-3.91.69-4.59-.53-4.85-2.96 1.49-3.89 3.91zM96.39 229.7c-2.08-1.31-4.14-1.43-4.59-.28s.86 3.15 2.95 4.46 4.14 1.43 4.59.28-.87-3.15-2.95-4.46z"/><path class="cls-9" d="M95.63 226.24c-1.34 2.06-3.15 3-4.05 2.18s-.54-3.22.8-5.29 3.15-3 4.05-2.18.57 3.23-.8 5.29zM81.82 229.6c2.18-1.13 4.24-1.07 4.6.12s-1.13 3.07-3.31 4.19-4.24 1.07-4.6-.12 1.13-3.06 3.31-4.19z"/><path class="cls-9" d="M82.88 226.24c1.16 2.17 2.88 3.29 3.85 2.51s.81-3.17-.35-5.33-2.88-3.29-3.85-2.51-.81 3.14.35 5.33zM106.69 226.7c-2.34-.75-4.36-.35-4.51.88s1.63 2.84 4 3.58 4.36.35 4.51-.88-1.69-2.84-4-3.58z"/><path class="cls-9" d="M105.09 223.54c-.78 2.33-2.29 3.73-3.38 3.12s-1.33-3-.55-5.32 2.29-3.73 3.38-3.12 1.33 3.02.55 5.32zM116.73 219.24c-2.43-.39-4.37.3-4.33 1.54s2 2.57 4.45 3 4.37-.3 4.33-1.54-2.02-2.57-4.45-3z"/><path class="cls-9" d="M114.68 216.39c-.43 2.42-1.72 4-2.88 3.59s-1.75-2.76-1.33-5.18 1.72-4 2.88-3.59 1.76 2.76 1.33 5.18zM125.17 211.81c-2.43.36-4.08 1.6-3.67 2.77s2.7 1.84 5.14 1.48 4.08-1.6 3.67-2.77-2.71-1.84-5.14-1.48z"/><path class="cls-9" d="M122.35 209.67c.32 2.44-.43 4.36-1.67 4.29s-2.5-2.1-2.82-4.54.43-4.36 1.67-4.29 2.47 2.11 2.82 4.54zM130.81 202.04c-2.45.2-4.17 1.34-3.84 2.53s2.58 2 5 1.8 4.17-1.34 3.84-2.53-2.55-2-5-1.8z"/><path class="cls-9" d="M128.12 199.73c.16 2.45-.7 4.32-1.94 4.17s-2.37-2.26-2.53-4.71.7-4.32 1.94-4.17 2.41 2.22 2.53 4.71zM134.21 190.52c-2.19 1.12-3.34 2.83-2.58 3.81s3.15.86 5.34-.26 3.34-2.83 2.58-3.81-3.15-.86-5.34.26z"/><path class="cls-9" d="M130.84 189.41c1.09 2.2 1 4.26-.19 4.6s-3-1.18-4.14-3.38-1-4.26.19-4.6 3.05 1.21 4.14 3.38zM137.17 180.06c-2.22 1.05-3.43 2.72-2.7 3.73s3.12 1 5.34-.09 3.43-2.72 2.7-3.73-3.12-.96-5.34.09z"/><path class="cls-9" d="M133.84 178.85c1 2.24.87 4.29-.34 4.59s-3-1.28-4-3.51-.87-4.29.34-4.59 2.98 1.27 4 3.51z"/></svg>