<svg id="图层_1" xmlns="http://www.w3.org/2000/svg" viewBox="0 0 177.7 254.5"><style>.st0{fill:#D63030;} .st1{fill:#FFFFFF;} .st2{fill:#FF0000;} .st3{fill:#FCE34E;} .st4{fill:#FFC32F;} .st5{fill:#F4AF15;} .st6{fill:none;stroke:#FF0000;stroke-width:4;stroke-miterlimit:10;} .st7{fill:none;stroke:#000000;stroke-miterlimit:10;} .st8{fill:#108E16;}</style><path class="st0" d="M34.59 47.35V7.45h105.9v39.9z"/><path class="st1" d="M37.468 33.542v-13.5h101.3v13.5z"/><path class="st2" d="M107.8 134.5H61.7L0 27.6 11.4 21l11.7-6.8 11.4-6.6.1.1 7.1 12.4 7.8 13.5 8 13.8 28.3 49.1 9.5 16.4 9 15.5z"/><path class="st1" d="M92.6 134.5H77l-6.6-11.3L11.4 21l11.7-6.8L34.6 34l7.7 13.4 35.9 62.3 9.5 16.4z"/><path class="st2" d="M177.7 29.2l-60.8 105.3h-53l6.5-11.3 7.8-13.5 7.6-13.2 28.4-49.1 8-13.8 7.8-13.5 7.2-12.6.7-1.2 2.1 1.2.5.2 11.6 6.8 13.5 7.7z"/><path class="st1" d="M165.8 21.9l-.2.3-61.3 106.2-3.5 6.1h-18l4.9-8.4 7.6-13.2 37.8-65.5 7.4-12.7 11.6-20.2.2-.3z"/><path class="st3" d="M155.4 185c0 13.1-3.8 25.2-10.4 35.5-4 6.3-9 11.8-14.9 16.3-11.2 8.8-25.3 14-40.6 14-8.7 0-16.9-1.7-24.5-4.7h-.1c-.8-.3-1.6-.7-2.4-1-12.4-5.6-22.7-14.9-29.6-26.4-5.9-9.8-9.2-21.3-9.2-33.6 0-36.3 29.5-65.8 65.8-65.8 10 0 19.6 2.3 28.1 6.3 12.9 6.1 23.6 16.3 30.2 28.9.1.1.1.2.2.4v.1c4.7 8.9 7.4 19.1 7.4 30z"/><path class="st4" d="M147.1 154.5l-83 91.3H64c-.8-.3-1.6-.7-2.4-1-12.4-5.6-22.7-14.9-29.6-26.4l84.7-93.2c12.9 6.1 23.6 16.3 30.2 28.9l.2.4z"/><path class="st5" d="M147.5 153.6l-.1.1-83.8 92.1c.8.3 1.6.7 2.4 1 0 0-.4.5-.3.5l.4-.5c7.6 2.9 15.9 4.4 24.6 4.3 15.3-.3 29.3-5.7 40.4-14.7 5.7-4.7 10.7-10.3 14.6-16.6 6.4-10.3 10-22.6 9.8-35.6-.2-10.9-3-21.1-7.8-30-.1 0-.1-.5-.2-.6z"/><circle class="st6" cx="89.5" cy="185.5" r="62"/><path class="st7" d="M89.5 235.5c-39.8-2.4-48.8-48.3-48.8-48.3M87.1 235.5c39.8-2.4 48.8-48.3 48.8-48.3"/><g><path class="st8" d="M42.3 199.6c2.3 1 3.5 2.7 2.9 3.8-.7 1.1-3.1 1.2-5.4.1-2.3-1-3.5-2.7-2.9-3.8.8-1 3.2-1.1 5.4-.1z"/><path class="st8" d="M45.6 198.2c-.9 2.4-.7 4.6.5 4.9 1.2.3 3-1.5 3.9-3.9s.7-4.6-.5-4.9-3 1.5-3.9 3.9zM47.1 208.6c2.3.8 3.7 2.4 3.1 3.4-.6 1.1-3 1.3-5.3.5s-3.7-2.4-3.1-3.4c.6-1.1 2.9-1.4 5.3-.5z"/><path class="st8" d="M50.2 207c-.8 2.3-.4 4.4.8 4.5 1.2.2 2.9-1.6 3.6-3.9.8-2.3.4-4.4-.8-4.5-1.1-.2-2.8 1.6-3.6 3.9zM54 218.9c2.1.7 3.4 2.1 2.9 3.2s-2.6 1.5-4.7.8-3.4-2.1-2.9-3.2c.4-1.1 2.6-1.5 4.7-.8z"/><path class="st8" d="M56.7 217.1c-.6 2.4-.1 4.4 1 4.5 1.1.1 2.5-1.8 3-4.1.6-2.4.1-4.4-1-4.5-1.1-.1-2.4 1.7-3 4.1zM71.6 232.4c2.3-.8 4.4-.4 4.5.8.2 1.2-1.6 2.9-3.9 3.6-2.3.8-4.4.4-4.5-.8-.2-1.1 1.6-2.8 3.9-3.6z"/><path class="st8" d="M73.1 229.3c.8 2.3 2.4 3.7 3.4 3.1 1.1-.6 1.3-3 .5-5.3s-2.4-3.7-3.4-3.1c-1.1.5-1.3 2.9-.5 5.3zM62.9 226.2c2.5 0 4.3.9 4.1 2.2s-2.4 2.2-4.8 2.3c-2.5 0-4.3-.9-4.1-2.2.2-1.2 2.4-2.3 4.8-2.3z"/><path class="st8" d="M65.4 223.7c.1 2.5 1.1 4.2 2.3 4s2.1-2.5 2.1-4.9c-.1-2.5-1.1-4.2-2.3-4-1.3.2-2.2 2.4-2.1 4.9zM39.4 191.3c2.3 1 3.5 2.7 2.9 3.8s-3.1 1.2-5.4.1c-2.3-1-3.5-2.7-2.9-3.8.7-1.1 3.1-1.1 5.4-.1z"/><path class="st8" d="M42.7 189.8c-.9 2.4-.7 4.6.5 4.9 1.2.3 3-1.5 3.9-3.9s.7-4.6-.5-4.9c-1.3-.2-3 1.5-3.9 3.9zM96.4 236c-2.1-1.3-4.1-1.4-4.6-.3-.5 1.2.9 3.2 2.9 4.5s4.1 1.4 4.6.3c.5-1.2-.8-3.2-2.9-4.5z"/><path class="st8" d="M95.6 232.5c-1.3 2.1-3.2 3-4.1 2.2-.9-.9-.5-3.2.8-5.3 1.3-2.1 3.2-3 4.1-2.2.9.9.6 3.2-.8 5.3z"/><g><path class="st8" d="M81.8 235.9c2.2-1.1 4.2-1.1 4.6.1.4 1.2-1.1 3.1-3.3 4.2-2.2 1.1-4.2 1.1-4.6-.1-.3-1.2 1.1-3.1 3.3-4.2z"/><path class="st8" d="M82.9 232.5c1.2 2.2 2.9 3.3 3.9 2.5s.8-3.2-.3-5.3-2.9-3.3-3.9-2.5-.9 3.1.3 5.3z"/></g><g><path class="st8" d="M106.7 233c-2.3-.7-4.4-.4-4.5.9s1.6 2.8 4 3.6c2.3.7 4.4.4 4.5-.9s-1.7-2.9-4-3.6z"/><path class="st8" d="M105.1 229.8c-.8 2.3-2.3 3.7-3.4 3.1s-1.3-3-.5-5.3 2.3-3.7 3.4-3.1 1.3 3 .5 5.3z"/></g><g><path class="st8" d="M116.7 225.5c-2.4-.4-4.4.3-4.3 1.5 0 1.2 2 2.6 4.5 3 2.4.4 4.4-.3 4.3-1.5 0-1.2-2-2.6-4.5-3z"/><path class="st8" d="M114.7 222.7c-.4 2.4-1.7 4-2.9 3.6-1.2-.4-1.8-2.8-1.3-5.2.4-2.4 1.7-4 2.9-3.6 1.1.4 1.7 2.7 1.3 5.2z"/></g><g><path class="st8" d="M125.2 218.1c-2.4.4-4.1 1.6-3.7 2.8.4 1.2 2.7 1.8 5.1 1.5 2.4-.4 4.1-1.6 3.7-2.8-.4-1.2-2.7-1.9-5.1-1.5z"/><path class="st8" d="M122.3 215.9c.3 2.4-.4 4.4-1.7 4.3-1.2-.1-2.5-2.1-2.8-4.5-.3-2.4.4-4.4 1.7-4.3s2.5 2.1 2.8 4.5z"/></g><g><path class="st8" d="M130.8 208.3c-2.4.2-4.2 1.3-3.8 2.5.3 1.2 2.6 2 5 1.8 2.4-.2 4.2-1.3 3.8-2.5s-2.5-2-5-1.8z"/><path class="st8" d="M128.1 206c.2 2.5-.7 4.3-1.9 4.2s-2.4-2.3-2.5-4.7c-.2-2.5.7-4.3 1.9-4.2 1.2.1 2.4 2.2 2.5 4.7z"/></g><g><path class="st8" d="M134.2 196.8c-2.2 1.1-3.3 2.8-2.6 3.8s3.2.9 5.3-.3c2.2-1.1 3.3-2.8 2.6-3.8-.7-1-3.1-.8-5.3.3z"/><path class="st8" d="M130.8 195.7c1.1 2.2 1 4.3-.2 4.6-1.2.3-3-1.2-4.1-3.4-1.1-2.2-1-4.3.2-4.6 1.2-.3 3.1 1.2 4.1 3.4z"/></g><g><path class="st8" d="M137.2 186.3c-2.2 1.1-3.4 2.7-2.7 3.7s3.1 1 5.3-.1 3.4-2.7 2.7-3.7c-.7-1-3.1-.9-5.3.1z"/><path class="st8" d="M133.8 185.1c1 2.2.9 4.3-.3 4.6-1.2.3-3-1.3-4-3.5s-.9-4.3.3-4.6 3 1.3 4 3.5z"/></g></g></svg>